<?xml version="1.0" standalone="no"?>
<!DOCTYPE svg PUBLIC "-//W3C//DTD SVG 20010904//EN"
 "http://www.w3.org/2000/svg">
<svg version="1.0" xmlns="http://www.w3.org/2000/svg"
 width="1024.000000pt" height="1024.000000pt" viewBox="0 0 1024.000000 1024.000000"
 preserveAspectRatio="xMidYMid meet">

<g transform="translate(0.000000,1024.000000) scale(0.100000,-0.100000)"
fill="#000000" stroke="none">
<path d="M4775 8989 c-781 -68 -1466 -340 -2075 -825 -172 -137 -454 -420
-594 -594 -474 -593 -751 -1252 -838 -1990 -24 -205 -29 -611 -10 -805 87
-884 465 -1708 1072 -2339 538 -559 1242 -951 1989 -1107 418 -86 931 -103
1351 -43 907 129 1754 584 2354 1264 549 621 859 1326 958 2175 8 68 13 227
12 415 0 257 -3 331 -22 470 -111 825 -422 1511 -960 2113 -331 371 -704 654
-1157 877 -452 223 -918 349 -1434 390 -156 12 -501 11 -646 -1z m1865 -1954
c112 -20 244 -62 332 -106 222 -112 393 -303 469 -522 31 -90 59 -248 59 -334
l0 -53 -249 0 -250 0 -6 48 c-30 217 -121 359 -277 436 -101 50 -196 68 -353
68 -207 -1 -341 -45 -440 -146 -169 -174 -165 -433 8 -604 74 -73 191 -139
400 -227 409 -172 497 -210 602 -262 377 -187 545 -365 621 -659 131 -511
-136 -1006 -636 -1177 -168 -58 -266 -71 -505 -72 -177 0 -236 4 -303 18 -403
89 -693 327 -808 665 -37 108 -64 260 -64 365 l0 67 260 0 260 0 4 -22 c3 -13
7 -51 10 -86 23 -255 152 -424 380 -498 108 -35 353 -45 486 -20 261 49 430
236 430 476 0 218 -119 369 -395 499 -44 21 -190 80 -325 131 -415 157 -624
268 -778 415 -124 117 -198 237 -249 402 -25 81 -27 101 -27 263 0 162 2 182
27 263 121 393 417 633 847 686 103 13 355 5 470 -14z m-2249 -315 c49 -173
138 -490 199 -705 462 -1653 702 -2504 717 -2540 4 -13 -32 -15 -266 -15
l-271 0 -9 23 c-5 12 -64 217 -132 454 l-124 433 -581 0 -580 0 -129 -455
-130 -455 -269 0 c-251 0 -268 1 -263 18 2 9 61 213 130 452 117 407 418 1470
732 2590 75 267 138 493 141 503 5 16 29 17 376 15 l370 -3 89 -315z"/>
<path d="M3897 6387 c-43 -150 -417 -1507 -417 -1512 0 -3 200 -5 445 -5 245
0 445 4 445 8 0 19 -436 1592 -444 1599 -1 1 -14 -39 -29 -90z"/>
</g>
</svg>
